<?xml version="1.0"?>
<svg xmlns="http://www.w3.org/2000/svg" xmlns:xlink="http://www.w3.org/1999/xlink" version="1.1" viewBox="0 0 224 224" width="16px" height="16px"><g transform=""><g fill="none" fill-rule="nonzero" stroke="none" stroke-width="1" stroke-linecap="butt" stroke-linejoin="miter" stroke-miterlimit="10" stroke-dasharray="" stroke-dashoffset="0" font-family="none" font-weight="none" font-size="none" text-anchor="none" style="mix-blend-mode: normal"><path d="M0,224v-224h224v224z" fill="none"/><g id="original-icon" fill="#a3a3a3"><g id="surface1"><path d="M107.73438,42.27343c-11.59375,-0.10937 -20.34375,0.4375 -27.67188,4.21095c-3.00782,1.53125 -5.14062,3.5 -6.78125,5.79687c-0.875,1.14843 -1.69532,2.1875 -2.07812,4.59375c-0.21875,1.14843 -0.38282,3.0625 0.8203,5.14063c1.20313,2.1328 3.77345,3.55468 5.52345,3.82812c1.3125,0.16407 4.10155,1.3125 4.59375,1.96875c1.14843,1.64063 1.58593,2.84375 1.75,3.5c0.16405,0.65625 0.10937,0.21875 0.10937,0.21875v0.65625c0,0 0.4375,6.89063 0.16407,14c-0.16407,3.5 -0.49218,7.16407 -1.03907,9.625c-0.54687,2.46093 -1.91407,3.0625 0.05468,1.91407c-1.36718,0.82032 -0.875,1.14843 -2.5703,0.27343c-1.75,-0.82032 -6.28907,-4.64843 -12.25,-15.36718c-5.96095,-10.77343 -10.28125,-16.35157 -11.26563,-17.55468c-0.38282,-1.09375 -1.3125,-3.33595 -4.48437,-5.79688c-4.10157,-3.17187 -8.3125,-3.22657 -8.3125,-3.22657l-0.38282,-0.05468h-30.57032c0,0 -1.75,0.05468 -3.77343,0.49218c-2.02343,0.4375 -4.92188,0.9297 -7.65625,4.32032h-0.05468c-2.78907,3.55468 -2.29688,6.78125 -2.07813,8.75c0.27344,2.02343 0.875,3.60938 0.875,3.60938l0.10938,0.32812l0.16406,0.32813c0,0 23.35156,49.8203 51.24219,80.17187c26.1953,28.54688 56.54687,28 56.54687,28h17.22657l0.38282,-0.05468c0,0 5.52343,0.27343 10.17187,-4.92188c2.35157,-2.67968 2.89843,-5.1953 3.17188,-7.05468c0.32812,-1.91407 0.32812,-3.44532 0.32812,-3.44532v0.4375c0,0 0.21875,-3.60937 1.20313,-7.3828c0.49218,-1.85938 1.20312,-3.71875 1.85937,-4.75782c0.32813,-0.60157 0.32813,-0.4375 0.4375,-0.60157c1.20313,0.875 3.17188,2.89843 5.25,5.46875c4.26563,5.08593 9.07813,12.14063 15.80468,17.00782c4.8672,3.44532 9.46095,4.97657 12.96095,5.52343c2.35155,0.38282 4.04687,0.32813 5.1953,0.21875l23.78907,-0.4375h0.21875c0,0 4.92188,-0.10937 9.84375,-3.22657c2.40625,-1.53125 5.19532,-4.3203 6.125,-8.3125c0.98438,-3.99218 -0.10937,-8.3125 -2.40625,-12.30468c0.76563,1.36718 -0.16407,-0.4375 -0.875,-1.85937c-0.71093,-1.42188 -1.80468,-3.33595 -3.44532,-5.7422c-3.17187,-4.70312 -8.42187,-11.3203 -17.11718,-19.74218c-4.10157,-3.9375 -6.72657,-6.125 -8.36718,-7.65625c0.49218,-0.71093 0.54687,-0.76562 2.40625,-2.95312c2.95312,-3.44532 7.27343,-8.53125 12.74218,-16.13282c6.5625,-9.1875 11.32032,-16.67968 14.38282,-22.91407c3.0625,-6.17968 5.52343,-11.32032 2.78907,-17.66407c-1.47657,-3.4453 -4.10157,-4.7578 -6.01563,-5.57812c-1.96875,-0.82032 -3.71875,-1.14843 -5.35937,-1.42188c-3.22657,-0.49218 -6.07032,-0.49218 -6.07032,-0.49218l-27.72657,0.21875c-0.82032,-0.16407 -3.99218,-0.76562 -8.09375,1.85938c-4.04687,2.51562 -4.97657,5.1953 -5.19532,6.01562c-0.65625,0.92968 -5.25,7.4375 -11.64843,18.8125c-6.45312,11.48438 -10.82812,14.60157 -11.375,14.875c-0.16407,-0.16407 0.16407,-0.10937 -0.60157,-0.54687c-0.32812,-0.27345 -0.65625,-0.4922 -0.92968,-3.44532c-0.21875,-2.95313 0.05468,-7.60157 0.05468,-13.07032c0,-11.75782 1.03907,-17.88282 0.4375,-23.73437c-0.27343,-2.95313 -1.47655,-6.5625 -4.10155,-8.96875c-2.625,-2.35157 -5.46875,-3.22657 -8.42188,-3.9922c-4.64843,-1.14843 -10.9375,-1.64062 -20.01562,-1.75zM107.625,56.27343c8.47657,0.10938 14.4375,0.76563 16.625,1.3125c1.85938,0.4922 2.13282,0.71095 2.07813,0.60157c0,0.10938 0,0.05468 0,0.21875c0.21875,2.35157 -0.4922,9.89843 -0.4922,22.3125c0,4.86718 -0.3828,9.57032 0,14.27343c0.38282,4.70313 2.07813,10.44532 7.0547,13.83595h0.05468c-0.60157,-0.38282 6.28907,4.7578 12.85157,2.40625c6.5625,-2.40625 11.7578,-8.42188 19.14062,-21.4922c6.45313,-11.59375 11.21093,-18.10155 11.21093,-18.10155l0.4375,-0.65625l0.32813,-0.65625c0,0 -0.10938,-0.0547 0,-0.10938l28.4375,-0.21875c0,0 1.96875,0 3.88282,0.32813c0.05468,0 0.10937,0 0.16405,0c-0.27343,0.10937 -0.05468,0.8203 -1.96875,4.70312c-2.46093,4.97657 -6.89062,12.08593 -13.17968,20.89063c-5.19532,7.16405 -9.07812,11.8125 -11.97657,15.20312c-2.89843,3.33593 -5.08593,4.92188 -6.5078,9.29688c-0.71095,2.1328 -0.54688,5.30468 0.49218,7.4375c0.98437,2.07812 2.1875,3.22655 3.39062,4.375c2.40625,2.29687 5.25,4.53905 9.40625,8.64062c8.14845,7.875 12.7422,13.67188 15.3125,17.5c1.3125,1.96875 2.07813,3.33593 2.57032,4.32032c0.49218,0.98437 0.16407,0.60157 1.25782,2.46093c0.92968,1.69532 0.76562,1.91407 0.76562,1.80468c-0.92968,0.54688 -3.28125,1.03907 -3.33593,1.03907l-23.78907,0.4375l-0.65625,0.16407c0,0 0.0547,0.05468 -1.42187,-0.16407c-1.53125,-0.27343 -3.9375,-0.92968 -7,-3.11718c-3.77343,-2.67968 -8.53125,-8.91407 -13.23438,-14.60157c-2.29687,-2.78907 -4.64843,-5.52343 -7.60155,-7.71093c-2.95313,-2.1875 -7.60157,-4.21093 -12.35938,-2.625c-4.10157,1.3125 -6.78125,4.32032 -8.47657,7.10937c-1.6953,2.84375 -2.67968,5.79688 -3.4453,8.47657c-1.42188,5.41407 -1.64063,10.28125 -1.64063,10.28125v0.4375c0,0 0,0.32813 -0.10937,0.82032c-0.27345,0.10937 -0.65625,0.38282 -0.875,0.49218h-16.73438c0,0 -23.13282,1.20313 -45.82812,-23.40625c-24.28125,-26.52343 -45.88282,-70.875 -47.6875,-74.59375h28.16405c0.27345,0.10938 1.25782,0.49218 1.14845,0.4375c-0.65625,-0.54687 0.32812,0.65625 0.32812,0.65625l0.4375,1.03907l0.76563,0.875c0,0 4.3203,5.25 10.5,16.40625c6.61718,11.97657 12.1953,18.21093 18.42968,21.21875c6.23437,3.00782 12.79687,0.875 15.58593,-0.71093c5.19532,-3.00782 5.79688,-7.21875 6.67188,-11.10157c0.875,-3.88282 1.14843,-8.03907 1.3125,-12.08593c0.32812,-7.76563 -0.10938,-14.38282 -0.10938,-14.875c-0.05468,-0.16407 -0.05468,-2.07813 -0.60157,-4.15625c-0.60155,-2.13282 -1.6953,-4.92188 -3.77343,-7.875c-0.875,-1.20313 -1.69532,-0.60157 -2.625,-1.47657c3.88282,-1.09375 8.03907,-2.1875 16.625,-2.07813z"/></g></g><path d="" fill="none"/><path d="" fill="none"/><path d="M112,224c-61.85589,0 -112,-50.14411 -112,-112v0c0,-61.85589 50.14411,-112 112,-112v0c61.85589,0 112,50.14411 112,112v0c0,61.85589 -50.14411,112 -112,112z" fill="none"/><path d="M112,219.52c-59.38166,0 -107.52,-48.13834 -107.52,-107.52v0c0,-59.38166 48.13834,-107.52 107.52,-107.52h0c59.38166,0 107.52,48.13834 107.52,107.52v0c0,59.38166 -48.13834,107.52 -107.52,107.52z" fill="none"/></g></g></svg>
